<svg xmlns="http://www.w3.org/2000/svg" viewBox="0 0 1600 1000" width="1600" height="1000">
<defs><linearGradient id="sky2" x1="0" y1="0" x2="0" y2="1"><stop offset="0" stop-color="#ffe2d2"/><stop offset="1" stop-color="#fff3e8"/></linearGradient>
<linearGradient id="water" x1="0" y1="0" x2="0" y2="1"><stop offset="0" stop-color="#7fe6c9"/><stop offset="1" stop-color="#3fd9ae"/></linearGradient></defs>
<rect width="1600" height="1000" fill="url(#sky2)"/><circle cx="230" cy="170" r="90" fill="#ffd166"/><circle cx="230" cy="170" r="140" fill="#ffd166" opacity=".25"/><g transform="translate(560 90) scale(0.75)" fill="#fff" opacity="0.9">
<rect x="0" y="40" width="300" height="70" rx="35"/><circle cx="95" cy="48" r="52"/><circle cx="175" cy="38" r="64"/><circle cx="240" cy="62" r="40"/></g><g transform="translate(1200 150) scale(0.9)" fill="#fff" opacity="0.9">
<rect x="0" y="40" width="300" height="70" rx="35"/><circle cx="95" cy="48" r="52"/><circle cx="175" cy="38" r="64"/><circle cx="240" cy="62" r="40"/></g><path d="M-40 320 H-5 V290 H30 V260 H44 V230 H86 V260 H100 V290 H135 V320 H170 V700 H-40 Z" fill="#c8553d"/><rect x="4.7" y="370" width="38" height="58" rx="4" fill="#fff5ea" stroke="#fff" stroke-width="6"/><line x1="4.7" y1="399" x2="42.7" y2="399" stroke="#fff" stroke-width="4"/><rect x="87.3" y="370" width="38" height="58" rx="4" fill="#fff5ea" stroke="#fff" stroke-width="6"/><line x1="87.3" y1="399" x2="125.3" y2="399" stroke="#fff" stroke-width="4"/><rect x="4.7" y="462" width="38" height="58" rx="4" fill="#fff5ea" stroke="#fff" stroke-width="6"/><line x1="4.7" y1="491" x2="42.7" y2="491" stroke="#fff" stroke-width="4"/><rect x="87.3" y="462" width="38" height="58" rx="4" fill="#fff5ea" stroke="#fff" stroke-width="6"/><line x1="87.3" y1="491" x2="125.3" y2="491" stroke="#fff" stroke-width="4"/><rect x="53" y="300" width="24" height="30" rx="12" fill="#fff5ea" opacity=".9"/><rect x="41" y="590" width="48" height="110" rx="24" fill="#1b1d23" opacity=".75"/><path d="M170 270 C 210 270, 210 250, 215 200 V160 H315 V200 C 320 250, 320 270, 360 270 V700 H170 Z" fill="#ffd166"/><rect x="208" y="300" width="38" height="58" rx="4" fill="#fff5ea" stroke="#fff" stroke-width="6"/><line x1="208" y1="329" x2="246" y2="329" stroke="#fff" stroke-width="4"/><rect x="284" y="300" width="38" height="58" rx="4" fill="#fff5ea" stroke="#fff" stroke-width="6"/><line x1="284" y1="329" x2="322" y2="329" stroke="#fff" stroke-width="4"/><rect x="208" y="392" width="38" height="58" rx="4" fill="#fff5ea" stroke="#fff" stroke-width="6"/><line x1="208" y1="421" x2="246" y2="421" stroke="#fff" stroke-width="4"/><rect x="284" y="392" width="38" height="58" rx="4" fill="#fff5ea" stroke="#fff" stroke-width="6"/><line x1="284" y1="421" x2="322" y2="421" stroke="#fff" stroke-width="4"/><rect x="208" y="484" width="38" height="58" rx="4" fill="#fff5ea" stroke="#fff" stroke-width="6"/><line x1="208" y1="513" x2="246" y2="513" stroke="#fff" stroke-width="4"/><rect x="284" y="484" width="38" height="58" rx="4" fill="#fff5ea" stroke="#fff" stroke-width="6"/><line x1="284" y1="513" x2="322" y2="513" stroke="#fff" stroke-width="4"/><rect x="253" y="230" width="24" height="30" rx="12" fill="#fff5ea" opacity=".9"/><rect x="241" y="590" width="48" height="110" rx="24" fill="#1b1d23" opacity=".75"/><path d="M360 360 C 370 290, 405 310, 435 260 Q 475 230 515 260 C 545 310, 580 290, 590 360 V700 H360 Z" fill="#ff6b6b"/><rect x="389" y="390" width="38" height="58" rx="4" fill="#fff5ea" stroke="#fff" stroke-width="6"/><line x1="389" y1="419" x2="427" y2="419" stroke="#fff" stroke-width="4"/><rect x="456" y="390" width="38" height="58" rx="4" fill="#fff5ea" stroke="#fff" stroke-width="6"/><line x1="456" y1="419" x2="494" y2="419" stroke="#fff" stroke-width="4"/><rect x="523" y="390" width="38" height="58" rx="4" fill="#fff5ea" stroke="#fff" stroke-width="6"/><line x1="523" y1="419" x2="561" y2="419" stroke="#fff" stroke-width="4"/><rect x="389" y="482" width="38" height="58" rx="4" fill="#fff5ea" stroke="#fff" stroke-width="6"/><line x1="389" y1="511" x2="427" y2="511" stroke="#fff" stroke-width="4"/><rect x="456" y="482" width="38" height="58" rx="4" fill="#fff5ea" stroke="#fff" stroke-width="6"/><line x1="456" y1="511" x2="494" y2="511" stroke="#fff" stroke-width="4"/><rect x="523" y="482" width="38" height="58" rx="4" fill="#fff5ea" stroke="#fff" stroke-width="6"/><line x1="523" y1="511" x2="561" y2="511" stroke="#fff" stroke-width="4"/><rect x="463" y="320" width="24" height="30" rx="12" fill="#fff5ea" opacity=".9"/><rect x="451" y="590" width="48" height="110" rx="24" fill="#1b1d23" opacity=".75"/><path d="M590 210 H623.3333333333334 V180 H656.6666666666666 V150 H670 V120 H710 V150 H723.3333333333334 V180 H756.6666666666666 V210 H790 V700 H590 Z" fill="#f0b35b"/><rect x="631.3" y="260" width="38" height="58" rx="4" fill="#fff5ea" stroke="#fff" stroke-width="6"/><line x1="631.3" y1="289" x2="669.3" y2="289" stroke="#fff" stroke-width="4"/><rect x="710.7" y="260" width="38" height="58" rx="4" fill="#fff5ea" stroke="#fff" stroke-width="6"/><line x1="710.7" y1="289" x2="748.7" y2="289" stroke="#fff" stroke-width="4"/><rect x="631.3" y="352" width="38" height="58" rx="4" fill="#fff5ea" stroke="#fff" stroke-width="6"/><line x1="631.3" y1="381" x2="669.3" y2="381" stroke="#fff" stroke-width="4"/><rect x="710.7" y="352" width="38" height="58" rx="4" fill="#fff5ea" stroke="#fff" stroke-width="6"/><line x1="710.7" y1="381" x2="748.7" y2="381" stroke="#fff" stroke-width="4"/><rect x="631.3" y="444" width="38" height="58" rx="4" fill="#fff5ea" stroke="#fff" stroke-width="6"/><line x1="631.3" y1="473" x2="669.3" y2="473" stroke="#fff" stroke-width="4"/><rect x="710.7" y="444" width="38" height="58" rx="4" fill="#fff5ea" stroke="#fff" stroke-width="6"/><line x1="710.7" y1="473" x2="748.7" y2="473" stroke="#fff" stroke-width="4"/><rect x="631.3" y="536" width="38" height="58" rx="4" fill="#fff5ea" stroke="#fff" stroke-width="6"/><line x1="631.3" y1="565" x2="669.3" y2="565" stroke="#fff" stroke-width="4"/><rect x="710.7" y="536" width="38" height="58" rx="4" fill="#fff5ea" stroke="#fff" stroke-width="6"/><line x1="710.7" y1="565" x2="748.7" y2="565" stroke="#fff" stroke-width="4"/><rect x="678" y="190" width="24" height="30" rx="12" fill="#fff5ea" opacity=".9"/><rect x="666" y="590" width="48" height="110" rx="24" fill="#1b1d23" opacity=".75"/><path d="M790 320 L900 200 L1010 320 V700 H790 Z" fill="#f2d6a2"/><rect x="816.5" y="340" width="38" height="58" rx="4" fill="#fff5ea" stroke="#fff" stroke-width="6"/><line x1="816.5" y1="369" x2="854.5" y2="369" stroke="#fff" stroke-width="4"/><rect x="881" y="340" width="38" height="58" rx="4" fill="#fff5ea" stroke="#fff" stroke-width="6"/><line x1="881" y1="369" x2="919" y2="369" stroke="#fff" stroke-width="4"/><rect x="945.5" y="340" width="38" height="58" rx="4" fill="#fff5ea" stroke="#fff" stroke-width="6"/><line x1="945.5" y1="369" x2="983.5" y2="369" stroke="#fff" stroke-width="4"/><rect x="816.5" y="432" width="38" height="58" rx="4" fill="#fff5ea" stroke="#fff" stroke-width="6"/><line x1="816.5" y1="461" x2="854.5" y2="461" stroke="#fff" stroke-width="4"/><rect x="881" y="432" width="38" height="58" rx="4" fill="#fff5ea" stroke="#fff" stroke-width="6"/><line x1="881" y1="461" x2="919" y2="461" stroke="#fff" stroke-width="4"/><rect x="945.5" y="432" width="38" height="58" rx="4" fill="#fff5ea" stroke="#fff" stroke-width="6"/><line x1="945.5" y1="461" x2="983.5" y2="461" stroke="#fff" stroke-width="4"/><rect x="816.5" y="524" width="38" height="58" rx="4" fill="#fff5ea" stroke="#fff" stroke-width="6"/><line x1="816.5" y1="553" x2="854.5" y2="553" stroke="#fff" stroke-width="4"/><rect x="881" y="524" width="38" height="58" rx="4" fill="#fff5ea" stroke="#fff" stroke-width="6"/><line x1="881" y1="553" x2="919" y2="553" stroke="#fff" stroke-width="4"/><rect x="945.5" y="524" width="38" height="58" rx="4" fill="#fff5ea" stroke="#fff" stroke-width="6"/><line x1="945.5" y1="553" x2="983.5" y2="553" stroke="#fff" stroke-width="4"/><rect x="888" y="270" width="24" height="30" rx="12" fill="#fff5ea" opacity=".9"/><rect x="876" y="590" width="48" height="110" rx="24" fill="#1b1d23" opacity=".75"/><path d="M1010 250 C 1020 180, 1040 200, 1070 150 Q 1110 120 1150 150 C 1180 200, 1200 180, 1210 250 V700 H1010 Z" fill="#93392a"/><rect x="1051.3" y="280" width="38" height="58" rx="4" fill="#fff5ea" stroke="#fff" stroke-width="6"/><line x1="1051.3" y1="309" x2="1089.3" y2="309" stroke="#fff" stroke-width="4"/><rect x="1130.7" y="280" width="38" height="58" rx="4" fill="#fff5ea" stroke="#fff" stroke-width="6"/><line x1="1130.7" y1="309" x2="1168.7" y2="309" stroke="#fff" stroke-width="4"/><rect x="1051.3" y="372" width="38" height="58" rx="4" fill="#fff5ea" stroke="#fff" stroke-width="6"/><line x1="1051.3" y1="401" x2="1089.3" y2="401" stroke="#fff" stroke-width="4"/><rect x="1130.7" y="372" width="38" height="58" rx="4" fill="#fff5ea" stroke="#fff" stroke-width="6"/><line x1="1130.7" y1="401" x2="1168.7" y2="401" stroke="#fff" stroke-width="4"/><rect x="1051.3" y="464" width="38" height="58" rx="4" fill="#fff5ea" stroke="#fff" stroke-width="6"/><line x1="1051.3" y1="493" x2="1089.3" y2="493" stroke="#fff" stroke-width="4"/><rect x="1130.7" y="464" width="38" height="58" rx="4" fill="#fff5ea" stroke="#fff" stroke-width="6"/><line x1="1130.7" y1="493" x2="1168.7" y2="493" stroke="#fff" stroke-width="4"/><rect x="1098" y="210" width="24" height="30" rx="12" fill="#fff5ea" opacity=".9"/><rect x="1086" y="590" width="48" height="110" rx="24" fill="#1b1d23" opacity=".75"/><path d="M1210 340 C 1250 340, 1275 320, 1280 270 V230 H1380 V270 C 1385 320, 1410 340, 1450 340 V700 H1210 Z" fill="#e8a33d"/><rect x="1241.5" y="370" width="38" height="58" rx="4" fill="#fff5ea" stroke="#fff" stroke-width="6"/><line x1="1241.5" y1="399" x2="1279.5" y2="399" stroke="#fff" stroke-width="4"/><rect x="1311" y="370" width="38" height="58" rx="4" fill="#fff5ea" stroke="#fff" stroke-width="6"/><line x1="1311" y1="399" x2="1349" y2="399" stroke="#fff" stroke-width="4"/><rect x="1380.5" y="370" width="38" height="58" rx="4" fill="#fff5ea" stroke="#fff" stroke-width="6"/><line x1="1380.5" y1="399" x2="1418.5" y2="399" stroke="#fff" stroke-width="4"/><rect x="1241.5" y="462" width="38" height="58" rx="4" fill="#fff5ea" stroke="#fff" stroke-width="6"/><line x1="1241.5" y1="491" x2="1279.5" y2="491" stroke="#fff" stroke-width="4"/><rect x="1311" y="462" width="38" height="58" rx="4" fill="#fff5ea" stroke="#fff" stroke-width="6"/><line x1="1311" y1="491" x2="1349" y2="491" stroke="#fff" stroke-width="4"/><rect x="1380.5" y="462" width="38" height="58" rx="4" fill="#fff5ea" stroke="#fff" stroke-width="6"/><line x1="1380.5" y1="491" x2="1418.5" y2="491" stroke="#fff" stroke-width="4"/><rect x="1318" y="300" width="24" height="30" rx="12" fill="#fff5ea" opacity=".9"/><rect x="1306" y="590" width="48" height="110" rx="24" fill="#1b1d23" opacity=".75"/><path d="M1450 260 H1485 V230 H1520 V200 H1534 V170 H1576 V200 H1590 V230 H1625 V260 H1660 V700 H1450 Z" fill="#ff6b6b"/><rect x="1494.7" y="310" width="38" height="58" rx="4" fill="#fff5ea" stroke="#fff" stroke-width="6"/><line x1="1494.7" y1="339" x2="1532.7" y2="339" stroke="#fff" stroke-width="4"/><rect x="1577.3" y="310" width="38" height="58" rx="4" fill="#fff5ea" stroke="#fff" stroke-width="6"/><line x1="1577.3" y1="339" x2="1615.3" y2="339" stroke="#fff" stroke-width="4"/><rect x="1494.7" y="402" width="38" height="58" rx="4" fill="#fff5ea" stroke="#fff" stroke-width="6"/><line x1="1494.7" y1="431" x2="1532.7" y2="431" stroke="#fff" stroke-width="4"/><rect x="1577.3" y="402" width="38" height="58" rx="4" fill="#fff5ea" stroke="#fff" stroke-width="6"/><line x1="1577.3" y1="431" x2="1615.3" y2="431" stroke="#fff" stroke-width="4"/><rect x="1494.7" y="494" width="38" height="58" rx="4" fill="#fff5ea" stroke="#fff" stroke-width="6"/><line x1="1494.7" y1="523" x2="1532.7" y2="523" stroke="#fff" stroke-width="4"/><rect x="1577.3" y="494" width="38" height="58" rx="4" fill="#fff5ea" stroke="#fff" stroke-width="6"/><line x1="1577.3" y1="523" x2="1615.3" y2="523" stroke="#fff" stroke-width="4"/><rect x="1543" y="240" width="24" height="30" rx="12" fill="#fff5ea" opacity=".9"/><rect x="1531" y="590" width="48" height="110" rx="24" fill="#1b1d23" opacity=".75"/><rect x="0" y="700" width="1600" height="60" fill="#e6c48a"/><rect x="0" y="760" width="1600" height="14" fill="#93392a" opacity=".55"/><rect x="251" y="540" width="18" height="170" rx="9" fill="#93392a"/>
<circle cx="260" cy="540" r="80" fill="#05b88a"/>
<circle cx="232" cy="516" r="28" fill="#fff" opacity=".18"/><rect x="891" y="510" width="18" height="200" rx="9" fill="#93392a"/>
<circle cx="900" cy="510" r="92" fill="#06d6a0"/>
<circle cx="867.8" cy="482.4" r="32.199999999999996" fill="#fff" opacity=".18"/><rect x="1391" y="550" width="18" height="160" rx="9" fill="#93392a"/>
<circle cx="1400" cy="550" r="76" fill="#05b88a"/>
<circle cx="1373.4" cy="527.2" r="26.599999999999998" fill="#fff" opacity=".18"/><g transform="translate(470 708)" fill="none" stroke-linecap="round" stroke-linejoin="round"><circle cx="0" cy="0" r="34" stroke="#1b1d23" stroke-width="6"/><circle cx="104" cy="0" r="34" stroke="#1b1d23" stroke-width="6"/><path d="M0 0 L36 -52 L88 -52 L104 0 M36 -52 L52 0 L88 -52 M36 -52 L30 -70 M18 -72 H42 M88 -52 L84 -76 L98 -80" stroke="#ff6b6b" stroke-width="8"/></g><g transform="translate(640 708)" fill="none" stroke-linecap="round" stroke-linejoin="round"><circle cx="0" cy="0" r="34" stroke="#1b1d23" stroke-width="6"/><circle cx="104" cy="0" r="34" stroke="#1b1d23" stroke-width="6"/><path d="M0 0 L36 -52 L88 -52 L104 0 M36 -52 L52 0 L88 -52 M36 -52 L30 -70 M18 -72 H42 M88 -52 L84 -76 L98 -80" stroke="#ffd166" stroke-width="8"/></g><g transform="translate(1110 708)" fill="none" stroke-linecap="round" stroke-linejoin="round"><circle cx="0" cy="0" r="34" stroke="#1b1d23" stroke-width="6"/><circle cx="104" cy="0" r="34" stroke="#1b1d23" stroke-width="6"/><path d="M0 0 L36 -52 L88 -52 L104 0 M36 -52 L52 0 L88 -52 M36 -52 L30 -70 M18 -72 H42 M88 -52 L84 -76 L98 -80" stroke="#c8553d" stroke-width="8"/></g><rect x="0" y="774" width="1600" height="226" fill="url(#water)"/><path d="M60 810 q 20 -12 40 0 t 40 0" fill="none" stroke="#fff" stroke-width="6" stroke-linecap="round" opacity=".6"/><path d="M235 865 q 20 -12 40 0 t 40 0" fill="none" stroke="#fff" stroke-width="6" stroke-linecap="round" opacity=".6"/><path d="M410 920 q 20 -12 40 0 t 40 0" fill="none" stroke="#fff" stroke-width="6" stroke-linecap="round" opacity=".6"/><path d="M585 810 q 20 -12 40 0 t 40 0" fill="none" stroke="#fff" stroke-width="6" stroke-linecap="round" opacity=".6"/><path d="M760 865 q 20 -12 40 0 t 40 0" fill="none" stroke="#fff" stroke-width="6" stroke-linecap="round" opacity=".6"/><path d="M935 920 q 20 -12 40 0 t 40 0" fill="none" stroke="#fff" stroke-width="6" stroke-linecap="round" opacity=".6"/><path d="M1110 810 q 20 -12 40 0 t 40 0" fill="none" stroke="#fff" stroke-width="6" stroke-linecap="round" opacity=".6"/><path d="M1285 865 q 20 -12 40 0 t 40 0" fill="none" stroke="#fff" stroke-width="6" stroke-linecap="round" opacity=".6"/><path d="M1460 920 q 20 -12 40 0 t 40 0" fill="none" stroke="#fff" stroke-width="6" stroke-linecap="round" opacity=".6"/><g transform="translate(820 880)"><path d="M-190 -30 H190 Q170 40 120 50 H-120 Q-170 40 -190 -30 Z" fill="#c8553d"/><rect x="-150" y="-36" width="300" height="12" rx="6" fill="#fff"/><rect x="-60" y="-80" width="140" height="44" rx="14" fill="#ffd166"/><line x1="150" y1="-36" x2="150" y2="-120" stroke="#93392a" stroke-width="6"/><path d="M150 -120 L205 -105 L150 -90 Z" fill="#ff6b6b"/></g>
</svg>
